<?xml version="1.0" encoding="UTF-8" standalone="no"?>
<!-- Created with SVGEdit -->
<svg
	xmlns="http://www.w3.org/2000/svg"
	baseProfile="full"
	version="1.1"
	viewBox="0 0 64.9984 52.4986"
	width="64.9984mm"
	height="52.4986mm"
>
<g id="layer1">
	<path style="fill:#000000; stroke=#000000; stroke-width:0.1px" d="
		M 39.637,1.196 40.5571,1.6353 40.8472,1.9834 41.4605,2.1326 42.7619,2.2072 43.226,2.41445 43.748,3.21015 44.138,3.4837 45.29,3.6743 46.2515,3.9629 47.0275,4.837 47.8265,5.3268 48.753,5.6131 49.5445,5.9748 51.074,7.301 51.428,7.87365 51.767,8.36345 52.3475,8.4991 52.95,8.73265 55.1355,10.624 55.497,11.2192 55.61,11.7618 56.0395,12.0557 56.16,12.5906 57.4715,13.6306 58.9785,15.1601 59.506,16.4637 59.561,17.666 60.179,18.3593 61.211,20.0171 62.0025,22.7825 62.4995,23.453 62.6805,24.1615 62.7255,25.382 62.899,25.887 63.389,26.3465 63.6825,26.663 63.9615,28.17 64.014,29.097 63.841,29.745 63.886,30.3705 64.2025,31.0785 64.2445,31.535 64.0745,31.9355 63.759,32.6755 63.686,34.035 63.9045,35.03 63.868,35.7215 63.383,36.462 62.6425,36.753 60.519,36.741 57.0355,36.925 56.889,39.01 56.566,41.2125 56.0665,42.49 55.582,45.089 52.924,47.7615 50.193,49.098 47.8165,49.5215 42.9338,49.2115 40.9609,48.5265 40.18,47.7595 40.2211,49.3625 39.8438,51.519 35.8645,51.871 35.6351,50.6215 35.0933,49.6255 34.1156,48.6725 32.9511,47.4085 31.6496,44.849 30.2484,43.983 29.1399,43.074 28.4798,42.1335 27.0849,37.986 26.6054,37.7685 25.9951,37.6685 25.1357,37.7805 23.1841,38.2635 21.7584,38.313 20.5483,38.106 18.5424,37.4595 18.1528,37.0945 17.8876,36.2245 17.6141,35.843 16.9675,35.495 15.8817,35.039 14.9534,33.9945 14.4395,32.4695 13.6106,32.2705 10.4618,31.8865 6.8449,30.9275 5.0159,30.03 4.0569,28.9545 2.0087,27.1805 1.42645,26.324 1.06335,25.221 1.0017,24.2075 0.96745,23.68 0.66605,23.3785 0.4948,22.618 0.62495,18.6587 0.57015,17.3778 0.6455,16.5968 1.20035,15.1035 1.7484,14.4733 2.0224,13.6992 2.2827,12.8087 3.18005,11.9729 3.59795,11.8359 4.63915,10.2056 6.09635,8.7419 6.66905,8.62445 7.30045,8.3895 7.57945,8.0224 7.55005,7.80215 9.03315,6.5393 11.221,5.59955 12.4398,4.70385 14.5983,3.57315 16.3751,3.3382 16.9331,3.162 17.6673,2.50125 18.6804,2.2516 20.3838,1.5321 22.5423,1.8111 23.1443,1.5174 25.5378,1.04755 27.3733,0.93005 28.8711,1.3412 30.0898,1.2678 32.1015,0.753851 34.4071,0.467199 36.6866,0.94405 37.7444,1.66365 38.7011,1.2051 Z
		M 43.8955,32.623 43.5955,32.889 43.267,32.94 42.9331,32.7585 42.633,32.266 42.4915,32.1245 42.3839,32.1925 42.3047,32.532 42.4066,33.285 43.55,35.7875 43.573,36.4215 43.3295,37.2085 43.0065,37.4915 42.6783,37.4235 42.1915,36.784 40.3855,33.37 39.9836,33.1265 39.876,33.1775 39.927,33.5285 40.2383,34.2645 40.912,35.6685 41.1441,36.314 41.0988,36.495 40.8101,36.744 40.5724,36.8575 40.3969,36.8745 40.0459,36.744 39.559,36.3365 39.1401,35.8495 38.7309,35.418 38.4337,35.2295 38.2611,35.239 38.1205,35.408 38.1077,35.744 38.2228,36.1015 38.8363,36.434 39.7183,36.9675 39.9867,37.236 40.0666,37.4055 39.9995,37.495 39.4307,37.6005 39.2006,37.693 39.0856,37.8655 39.1463,38.0255 39.5062,38.376 39.5741,38.5345 39.4535,38.64 39.2501,38.6925 38.4212,38.527 38.0904,38.363 38.982,41.0525 39.0336,40.9765 39.8459,40.4125 40.0945,40.33 40.1691,40.4295 39.8376,40.877 39.5641,41.424 39.6138,41.8215 39.9785,41.83 40.1691,41.548 40.4675,41.084 40.882,41.001 41.0477,41.076 41.0643,42.551 41.1886,42.6835 41.4953,42.601 41.6694,42.261 41.6777,41.25 41.7523,41.001 42.2081,40.9765 42.7386,41.3325 43.4515,42.294 44.5125,44.134 44.811,44.3165 45.051,44.184 45.217,43.612 45.1425,43.156 44.015,41.805 44.156,40.8935 44.355,40.562 44.612,40.537 45.192,40.885 48.317,43.902 48.756,44.0015 48.93,43.7615 48.864,43.1395 48.3415,42.377 46.427,40.8605 46.369,40.562 46.6095,40.305 47.007,40.272 48.93,40.943 49.784,41.0095 50.671,40.628 50.82,40.33 50.671,40.081 50.074,39.8655 49.129,40.048 48.6565,39.965 48.582,39.766 48.7065,39.451 49.8005,38.7715 50.2065,38.3905 50.298,37.8765 50.1405,37.752 49.676,37.8845 48.9715,38.5145 48.317,39.136 47.6705,38.9375 47.5955,38.4565 48.1595,37.578 49.2615,36.6165 49.2785,36.053 49.121,35.763 48.8805,35.771 48.3665,36.2765 47.571,37.578 46.208,38.5455 45.5985,39.299 45.023,39.628 44.811,39.5455 44.674,39.1825 44.9135,37.5045 45.0575,37.3195 45.5025,37.703 45.681,37.6415 45.6465,36.7985 45.7905,36.3945 46.1945,36.0725 46.9275,35.1615 47.2765,34.218 47.0895,33.315 46.741,33.0785 46.5105,33.147 46.367,34.1495 45.95,35.563 45.4205,36.167 44.9845,36.3225 44.7295,36.111 44.507,35.306 44.4165,33.4095 44.5635,31.315 44.139,31.666 Z
	"/>
	<path style="fill:#0000FF; stroke:#FAC764; stroke-width:0.1px" d="
		M 44.138,3.4837 45.29,3.6743 46.2515,3.9629 47.0275,4.837 47.8265,5.3268 48.753,5.6131 49.5445,5.9748 51.074,7.301 51.428,7.87365 51.767,8.36345 52.3475,8.4991 52.95,8.73265 55.1355,10.624 55.497,11.2192 55.61,11.7618 56.0395,12.0557 56.16,12.5906 57.4715,13.6306 58.9785,15.1601 59.506,16.4637 59.561,17.666 60.179,18.3593 61.211,20.0171 62.0025,22.7825 62.4995,23.453 62.6805,24.1615 62.7255,25.382 62.899,25.887 63.389,26.3465 63.6825,26.663 63.9615,28.17 64.014,29.097 63.841,29.745 63.886,30.3705 64.2025,31.0785 64.2445,31.535 64.0745,31.9355 63.759,32.6755 63.686,34.035 63.9045,35.03 63.868,35.7215 63.383,36.462 62.6425,36.753 60.519,36.741 57.0355,36.925 56.889,39.01 56.566,41.2125 56.0665,42.49 55.582,45.089 52.924,47.7615 50.193,49.098 47.8165,49.5215 42.9338,49.2115 40.9609,48.5265 40.18,47.7595 40.2211,49.3625 39.8438,51.519 35.8645,51.871 35.6351,50.6215 35.0933,49.6255 34.1156,48.6725 32.9511,47.4085 31.6496,44.849 30.2484,43.983 29.1399,43.074 28.4798,42.1335 27.0849,37.986 26.8138,37.863 43.961,3.35955 Z
		M 44.139,31.666 43.8955,32.623 43.5955,32.889 43.267,32.94 42.9331,32.7585 42.633,32.266 42.4915,32.1245 42.3839,32.1925 42.3047,32.532 42.4066,33.285 43.55,35.7875 43.573,36.4215 43.3295,37.2085 43.0065,37.4915 42.6783,37.4235 42.1915,36.784 40.3855,33.37 39.9836,33.1265 39.876,33.1775 39.927,33.5285 40.2383,34.2645 40.912,35.6685 41.1441,36.314 41.0988,36.495 40.8101,36.744 40.5724,36.8575 40.3969,36.8745 40.0459,36.744 39.559,36.3365 39.1401,35.8495 38.7309,35.418 38.4337,35.2295 38.2611,35.239 38.1205,35.408 38.1077,35.744 38.2228,36.1015 38.8363,36.434 39.7183,36.9675 39.9867,37.236 40.0666,37.4055 39.9995,37.495 39.4307,37.6005 39.2006,37.693 39.0856,37.8655 39.1463,38.0255 39.5062,38.376 39.5741,38.5345 39.4535,38.64 39.2501,38.6925 38.4212,38.527 38.0904,38.363 38.982,41.0525 39.0336,40.9765 39.8459,40.4125 40.0945,40.33 40.1691,40.4295 39.8376,40.877 39.5641,41.424 39.6138,41.8215 39.9785,41.83 40.1691,41.548 40.4675,41.084 40.882,41.001 41.0477,41.076 41.0643,42.551 41.1886,42.6835 41.4953,42.601 41.6694,42.261 41.6777,41.25 41.7523,41.001 42.2081,40.9765 42.7386,41.3325 43.4515,42.294 44.5125,44.134 44.811,44.3165 45.051,44.184 45.217,43.612 45.1425,43.156 44.015,41.805 44.156,40.8935 44.355,40.562 44.612,40.537 45.192,40.885 48.317,43.902 48.756,44.0015 48.93,43.7615 48.864,43.1395 48.3415,42.377 46.427,40.8605 46.369,40.562 46.6095,40.305 47.007,40.272 48.93,40.943 49.784,41.0095 50.671,40.628 50.82,40.33 50.671,40.081 50.074,39.8655 49.129,40.048 48.6565,39.965 48.582,39.766 48.7065,39.451 49.8005,38.7715 50.2065,38.3905 50.298,37.8765 50.1405,37.752 49.676,37.8845 48.9715,38.5145 48.317,39.136 47.6705,38.9375 47.5955,38.4565 48.1595,37.578 49.2615,36.6165 49.2785,36.053 49.121,35.763 48.8805,35.771 48.3665,36.2765 47.571,37.578 46.208,38.5455 45.5985,39.299 45.023,39.628 44.811,39.5455 44.674,39.1825 44.9135,37.5045 45.0575,37.3195 45.5025,37.703 45.681,37.6415 45.6465,36.7985 45.7905,36.3945 46.1945,36.0725 46.9275,35.1615 47.2765,34.218 47.0895,33.315 46.741,33.0785 46.5105,33.147 46.367,34.1495 45.95,35.563 45.4205,36.167 44.9845,36.3225 44.7295,36.111 44.507,35.306 44.4165,33.4095 44.5635,31.315 Z
	"/>
	<path style="fill:#FF0000; stroke:#DAC0A6; stroke-width:0.1px" d="
		M 36.6866,0.94405 37.7444,1.66365 38.7011,1.2051 39.637,1.196 40.5571,1.6353 40.8472,1.9834 41.4605,2.1326 42.7619,2.2072 43.226,2.41445 43.748,3.21015 43.961,3.35955 26.8138,37.863 26.6054,37.7685 25.9951,37.6685 25.1357,37.7805 23.1841,38.2635 21.7584,38.313 20.5483,38.106 18.5424,37.4595 18.1528,37.0945 17.8876,36.2245 17.6141,35.843 16.9675,35.495 15.8817,35.039 14.9534,33.9945 14.4395,32.4695 13.6106,32.2705 10.4618,31.8865 6.8449,30.9275 5.0159,30.03 4.0569,28.9545 2.0087,27.1805 1.42645,26.324 1.06335,25.221 1.0017,24.2075 0.96745,23.68 0.66605,23.3785 0.4948,22.618 0.62495,18.6587 0.57015,17.3778 0.6455,16.5968 1.20035,15.1035 1.7484,14.4733 2.0224,13.6992 2.2827,12.8087 3.18005,11.9729 3.59795,11.8359 4.63915,10.2056 6.09635,8.7419 6.66905,8.62445 7.30045,8.3895 7.57945,8.0224 7.55005,7.80215 9.03315,6.5393 11.221,5.59955 12.4398,4.70385 14.5983,3.57315 16.3751,3.3382 16.9331,3.162 17.6673,2.50125 18.6804,2.2516 20.3838,1.5321 22.5423,1.8111 23.1443,1.5174 25.5378,1.04755 27.3733,0.93005 28.8711,1.3412 30.0898,1.2678 32.1015,0.753851 34.4071,0.467199 Z
	"/>
</g>
</svg>
