<?xml version="1.0" encoding="UTF-8" standalone="no"?>
<!-- Created with SVGEdit -->
<svg
	xmlns="http://www.w3.org/2000/svg"
	baseProfile="full"
	version="1.1"
	viewBox="0 0 99.5796 81.4439"
	width="99.5796mm"
	height="81.4439mm"
>
<g id="layer1">
	<path style="fill:#000000; stroke=#000000; stroke-width:0.1px" d="
		M 66.4047,80.4448 65.5199,80.7833 63.2423,79.0168 62.6572,78.3739 62.0628,77.8036 62.3457,75.8004 66.2565,62.7522 66.5473,60.9353 66.6348,60.025 67.2411,59.428 66.614,59.554 64.3363,60.4236 62.749,60.4139 61.5423,59.7242 61.6111,58.8972 63.3752,56.602 64.1486,54.004 64.5339,49.8383 64.4805,47.3962 64.4722,43.9173 63.6819,40.8634 63.9017,39.758 64.0204,38.9728 63.7025,38.1461 64.0261,36.1143 63.1947,35.7054 61.9061,36.5449 61.5928,37.4281 61.5903,41.419 60.9202,48.8897 58.6158,60.8568 57.9174,62.5091 56.4393,63.7603 54.1358,67.2177 53.1765,72.1739 52.917,75.368 53.0462,76.288 55.029,77.7643 57.3946,79.1987 57.4496,79.9482 56.7718,80.5454 53.244,80.6548 50.7582,80.1444 49.5101,79.8906 48.7069,79.9932 47.993,80.569 46.6377,80.2437 45.343,75.6892 48.5401,65.0468 47.7211,65.0508 43.7495,74.1919 42.8342,77.3924 42.0116,78.1441 41.3696,79.299 40.2306,80.4334 39.1888,80.0807 17.0105,80.5626 1.6007,80.3058 0.5573,79.9669 3.0414,76.5943 5.8928,71.4963 7.6393,67.6712 8.0471,66.8814 8.5906,66.1692 8.9016,64.8701 8.3267,64.3218 7.3234,64.5734 7.0699,64.0247 5.6848,63.4512 4.8288,63.0935 8.4663,61.3908 11.0648,59.3907 11.2657,58.6839 11.0543,57.1728 10.4606,56.145 10.3194,54.846 8.8835,53.5571 8.359,51.8936 8.4448,49.5447 9.1718,47.2793 10.9391,44.4412 15.0481,40.8006 19.4155,38.562 21.9239,37.9264 25.2859,37.5712 25.1145,35.832 25.0508,34.6977 23.088,33.6361 22.0165,32.4324 21.7069,31.1681 21.9976,29.4066 23.2977,28.0398 24.8374,27.2411 25.248,26.9385 23.8282,26.6285 22.1816,26.5273 20.7694,26.0299 19.5726,24.6568 18.8752,22.902 18.8464,21.0654 19.446,19.8682 20.8829,18.9518 22.3404,18.5237 24.2296,14.6673 25.9704,12.4125 26.8075,11.9986 27.574,12.2843 28.3589,13.3006 28.9462,15.1224 29.8705,15.7481 30.5874,17.2501 31.7012,17.8234 32.5577,18.168 32.0068,19.9931 31.4336,20.5691 30.7929,21.0599 32.0632,22.011 32.2081,24.0654 31.3073,25.0483 31.9826,25.6197 33.0262,25.9796 34.6158,26.4361 35.2256,27.3357 35.5725,29.3127 36.7375,30.0391 37.4457,29.4682 39.8895,25.6404 42.2127,23.1632 42.9917,22.8366 42.9325,22.1717 39.3307,22.8449 37.5452,23.3124 36.9591,21.5182 36.8872,20.0596 37.6452,18.8359 35.7781,18.2244 36.9722,15.2492 37.4121,13.8615 42.4708,15.5987 43.9836,16.2619 44.1179,15.3258 43.2859,15.0737 41.7893,14.8486 41.6482,13.9866 42.1523,13.0709 41.6219,10.7478 37.6714,6.4202 38.8219,4.9963 41.2988,2.9872 45.3238,1.098 47.5674,0.5148 48.2741,0.9442 48.6743,2.7688 49.4579,7.1943 49.8891,8.1766 52.3589,7.9128 52.7215,8.6054 52.1193,9.9052 51.529,10.9675 52.0334,11.6785 53.6339,12.1443 53.5153,12.9664 53.2815,13.8682 53.066,14.7164 52.0691,15.4346 54.1048,16.7563 54.1315,17.8009 53.2792,18.9484 55.1969,19.6345 57.0237,21.0788 57.8937,21.5373 60.1287,24.3109 60.8585,26.203 61.6249,26.3368 65.4699,20.6266 66.4903,20.5953 67.8117,20.7155 69.9362,19.4329 69.416,18.1458 68.8901,17.183 68.1941,16.2427 66.3663,15.0751 66.2326,12.5555 66.9766,11.421 66.5821,8.8327 66.9942,7.5215 69.3757,5.6158 72.1944,4.63 74.5418,4.4835 75.9123,4.9439 76.3863,5.7402 76.39,8.3631 76.5786,9.1188 78.3306,9.3976 78.927,10.2272 78.6016,10.9835 76.823,12.3616 77.777,12.8788 78.7947,13.323 78.6924,14.2037 78.3495,15.096 77.7469,15.8604 76.9274,16.1552 78.606,17.374 78.3413,18.2615 77.4025,19.7863 79.4344,19.6341 83.5306,19.0111 84.0464,19.5613 82.1245,21.3401 82.1277,22.2101 83.2025,22.9005 85.4761,22.4804 86.3143,22.3081 91.7129,24.6304 92.2456,23.8367 92.9551,23.3852 93.1426,22.4557 92.9083,21.3453 93.7267,19.6352 94.5671,19.4876 95.4703,19.2837 97.801,16.1466 98.6594,16.2635 97.396,18.9513 97.715,19.7377 98.5871,20.0158 99.0023,22.1419 98.0683,23.6207 95.7884,30.3776 94.1535,31.0921 91.713,35.0767 90.3937,36.6103 87.5168,37.7319 87.1778,42.03 86.0117,47.6405 84.0163,53.4065 80.6009,60.6869 79.935,60.1347 78.1876,59.4973 76.1534,63.6917 75.4495,64.5798 74.4175,72.0617 74.5032,74.4789 75.2583,76.1365 78.8379,79.584 78.9382,80.5168 78.0717,80.8113 68.9659,80.8857 Z
		M 38.9397,69.6406 40.4354,67.2681 40.5743,66.0032 40.9937,65.2232 41.4792,64.5211 42.4267,62.9916 41.8697,62.3481 40.8047,61.5356 41.5844,59.8954 40.6284,60.5 38.4485,60.9194 36.6262,59.7155 36.2746,58.9042 39.124,56.3422 41.227,52.9976 42.7599,49.3548 43.5908,46.0482 44.1327,45.1886 44.4216,43.8129 44.7288,42.6867 44.8087,40.7737 44.8649,39.6928 44.007,38.6788 43.6955,36.3521 43.787,35.4074 43.1881,35.2774 42.1984,35.7868 40.4851,38.5346 39.2677,39.5085 37.8277,39.8195 36.5131,39.9586 35.1698,41.7143 35.8573,44.9786 35.6738,49.9207 34.6498,57.5761 32.8387,66.9985 32.2202,74.4595 32.3158,77.9517 33.9768,76.8599 36.084,74.4743 36.4896,73.6536 Z
	"/>
	<path style="fill:#FF0000; stroke:#C4C2D1; stroke-width:0.1px" d="
		M 75.9123,4.9439 76.3863,5.7402 76.39,8.3631 76.5786,9.1188 78.3306,9.3976 78.927,10.2272 78.6016,10.9835 76.823,12.3616 77.777,12.8788 78.7947,13.323 78.6924,14.2037 78.3495,15.096 77.7469,15.8604 76.9274,16.1552 78.606,17.374 78.3413,18.2615 77.4025,19.7863 79.4344,19.6341 83.5306,19.0111 84.0464,19.5613 82.1245,21.3401 82.1277,22.2101 83.2025,22.9005 85.4761,22.4804 86.3143,22.3081 91.7129,24.6304 92.2456,23.8367 92.9551,23.3852 93.1426,22.4557 92.9083,21.3453 93.7267,19.6352 94.5671,19.4876 95.4703,19.2837 97.801,16.1466 98.6594,16.2635 97.396,18.9513 97.715,19.7377 98.5871,20.0158 99.0023,22.1419 98.0683,23.6207 95.7884,30.3776 94.1535,31.0921 91.713,35.0767 90.3937,36.6103 87.5168,37.7319 87.1778,42.03 86.0117,47.6405 84.0163,53.4065 80.6009,60.6869 79.935,60.1347 78.1876,59.4973 76.1534,63.6917 75.4495,64.5798 74.4175,72.0617 74.5032,74.4789 75.2583,76.1365 78.8379,79.584 78.9382,80.5168 78.0717,80.8113 68.9659,80.8857 66.4047,80.4448 65.5199,80.7833 63.2423,79.0168 62.6572,78.3739 62.0628,77.8036 62.3457,75.8004 66.2565,62.7522 66.5473,60.9353 66.6348,60.025 67.2411,59.428 66.614,59.554 64.3363,60.4236 62.749,60.4139 61.5423,59.7242 61.6111,58.8972 63.3752,56.602 64.1486,54.004 64.5339,49.8383 64.4805,47.3962 64.4722,43.9173 63.6819,40.8634 63.9017,39.758 64.0204,38.9728 63.7025,38.1461 64.0261,36.1143 63.1947,35.7054 62.7532,35.9931 61.1083,26.2466 61.6249,26.3368 65.4699,20.6266 66.4903,20.5953 67.8117,20.7155 69.9362,19.4329 69.416,18.1458 68.8901,17.183 68.1941,16.2427 66.3663,15.0751 66.2326,12.5555 66.9766,11.421 66.5821,8.8327 66.9942,7.5215 69.3757,5.6158 72.1944,4.63 74.5418,4.4835 Z
	"/>
	<path style="fill:#00FFFF; stroke:#C5B868; stroke-width:0.1px" d="
		M 27.574,12.2843 28.3589,13.3006 28.9462,15.1224 29.8705,15.7481 30.5874,17.2501 31.7012,17.8234 32.5577,18.168 32.0068,19.9931 31.4336,20.5691 30.7929,21.0599 32.0632,22.011 32.2081,24.0654 31.3073,25.0483 31.9826,25.6197 33.0262,25.9796 34.6158,26.4361 35.2256,27.3357 35.5725,29.3127 36.5762,29.9385 38.5456,39.6644 37.8277,39.8195 36.5131,39.9586 35.1698,41.7143 35.8573,44.9786 35.6738,49.9207 34.6498,57.5761 32.8387,66.9985 32.2202,74.4595 32.3158,77.9517 32.3594,77.923 32.0964,80.2348 17.0105,80.5626 1.6007,80.3058 0.5573,79.9669 3.0414,76.5943 5.8928,71.4963 7.6393,67.6712 8.0471,66.8814 8.5906,66.1692 8.9016,64.8701 8.3267,64.3218 7.3234,64.5734 7.0699,64.0247 5.6848,63.4512 4.8288,63.0935 8.4663,61.3908 11.0648,59.3907 11.2657,58.6839 11.0543,57.1728 10.4606,56.145 10.3194,54.846 8.8835,53.5571 8.359,51.8936 8.4448,49.5447 9.1718,47.2793 10.9391,44.4412 15.0481,40.8006 19.4155,38.562 21.9239,37.9264 25.2859,37.5712 25.1145,35.832 25.0508,34.6977 23.088,33.6361 22.0165,32.4324 21.7069,31.1681 21.9976,29.4066 23.2977,28.0398 24.8374,27.2411 25.248,26.9385 23.8282,26.6285 22.1816,26.5273 20.7694,26.0299 19.5726,24.6568 18.8752,22.902 18.8464,21.0654 19.446,19.8682 20.8829,18.9518 22.3404,18.5237 24.2296,14.6673 25.9704,12.4125 26.8075,11.9986 Z
	"/>
	<path style="fill:#0000FF; stroke:#FAC764; stroke-width:0.1px" d="
		M 48.2741,0.9442 48.6743,2.7688 49.4579,7.1943 49.8891,8.1766 52.3589,7.9128 52.7215,8.6054 52.1193,9.9052 51.529,10.9675 52.0334,11.6785 53.6339,12.1443 53.5153,12.9664 53.2815,13.8682 53.066,14.7164 52.0691,15.4346 54.1048,16.7563 54.1315,17.8009 53.2792,18.9484 55.1969,19.6345 57.0237,21.0788 57.8937,21.5373 60.1287,24.3109 60.8585,26.203 61.1083,26.2466 62.7532,35.9931 61.9061,36.5449 61.5928,37.4281 61.5903,41.419 60.9202,48.8897 58.6158,60.8568 57.9174,62.5091 56.4393,63.7603 54.1358,67.2177 53.1765,72.1739 52.917,75.368 53.0462,76.288 55.029,77.7643 57.3946,79.1987 57.4496,79.9482 56.7718,80.5454 53.244,80.6548 50.7582,80.1444 49.5101,79.8906 48.7069,79.9932 47.993,80.569 46.6377,80.2437 45.343,75.6892 48.5401,65.0468 47.7211,65.0508 43.7495,74.1919 42.8342,77.3924 42.0116,78.1441 41.3696,79.299 40.2306,80.4334 39.1888,80.0807 32.0964,80.2348 32.3594,77.923 33.9768,76.8599 36.084,74.4743 36.4896,73.6536 38.9397,69.6406 40.4354,67.2681 40.5743,66.0032 40.9937,65.2232 41.4792,64.5211 42.4267,62.9916 41.8697,62.3481 40.8047,61.5356 41.5844,59.8954 40.6284,60.5 38.4485,60.9194 36.6262,59.7155 36.2746,58.9042 39.124,56.3422 41.227,52.9976 42.7599,49.3548 43.5908,46.0482 44.1327,45.1886 44.4216,43.8129 44.7288,42.6867 44.8087,40.7737 44.8649,39.6928 44.007,38.6788 43.6955,36.3521 43.787,35.4074 43.1881,35.2774 42.1984,35.7868 40.4851,38.5346 39.2677,39.5085 38.5456,39.6644 36.5762,29.9385 36.7375,30.0391 37.4457,29.4682 39.8895,25.6404 42.2127,23.1632 42.9917,22.8366 42.9325,22.1717 39.3307,22.8449 37.5452,23.3124 36.9591,21.5182 36.8872,20.0596 37.6452,18.8359 35.7781,18.2244 36.9722,15.2492 37.4121,13.8615 42.4708,15.5987 43.9836,16.2619 44.1179,15.3258 43.2859,15.0737 41.7893,14.8486 41.6482,13.9866 42.1523,13.0709 41.6219,10.7478 37.6714,6.4202 38.8219,4.9963 41.2988,2.9872 45.3238,1.098 47.5674,0.5148 Z
	"/>
</g>
</svg>
